<svg 
 width="362.000000pt" height="399.000000pt" viewBox="0 0 362.000000 399.000000"
 preserveAspectRatio="xMidYMid meet">

<g transform="translate(0.000000,399.000000) scale(0.100000,-0.100000)"
fill="#000000" stroke="none">
<path d="M617 3979 c-138 -10 -171 -26 -175 -88 -4 -57 29 -164 84 -275 84
-167 199 -312 331 -417 l72 -57 -67 -12 c-374 -65 -687 -348 -807 -730 -75
-242 -71 -597 11 -929 89 -360 288 -758 521 -1041 240 -294 544 -447 813 -410
91 12 131 25 216 68 33 17 86 38 118 47 74 22 127 12 252 -44 158 -70 255 -89
382 -71 238 32 461 168 651 395 353 424 591 1074 591 1614 0 500 -283 917
-723 1067 -107 36 -218 54 -342 54 -188 0 -325 -35 -519 -132 -54 -27 -100
-48 -102 -46 -9 10 33 135 76 224 73 152 199 279 380 384 76 44 110 78 110
110 0 34 -42 92 -106 149 -44 38 -53 42 -87 38 -89 -12 -295 -179 -384 -312
-49 -73 -102 -178 -133 -265 -13 -36 -26 -68 -30 -73 -3 -4 -14 19 -24 50 -43
135 -160 327 -266 433 -206 209 -477 296 -843 269z m357 -193 c246 -68 382
-181 523 -436 31 -58 83 -181 83 -199 0 -16 -47 -14 -173 9 -246 43 -406 125
-553 283 -100 108 -216 312 -200 353 6 15 21 16 134 11 70 -3 154 -12 186 -21z
m276 -832 c78 -19 241 -95 356 -165 166 -102 199 -103 349 -13 198 119 317
170 452 194 88 16 274 8 358 -15 128 -35 295 -131 295 -170 0 -23 -320 -323
-369 -346 -54 -25 -72 -22 -217 33 -101 39 -116 42 -209 42 -120 0 -215 -24
-338 -85 -141 -71 -233 -154 -597 -534 -295 -308 -321 -346 -286 -413 19 -37
44 -52 86 -52 25 0 36 8 63 47 58 84 140 174 402 441 143 145 288 284 323 309
35 25 98 59 140 76 67 27 89 31 177 32 93 0 105 -2 169 -32 121 -58 272 -196
344 -315 90 -151 78 -355 -32 -520 -72 -109 -512 -518 -737 -685 -92 -68 -108
-95 -86 -143 7 -14 27 -33 46 -42 31 -16 37 -16 65 -1 77 39 529 425 717 612
248 248 312 466 224 771 -38 133 -29 185 52 298 58 83 262 284 283 280 8 -2
37 -46 63 -98 68 -137 90 -243 90 -440 0 -353 -95 -725 -272 -1065 -122 -236
-235 -391 -400 -546 -152 -145 -271 -205 -426 -216 -114 -8 -183 8 -315 74
l-115 58 -105 0 -105 0 -135 -65 -135 -65 -115 1 c-132 1 -189 17 -303 85 -78
47 -232 190 -317 296 -399 496 -607 1250 -479 1738 69 264 245 478 480 583
170 76 386 98 559 56z"/>
<path d="M1629 1614 c-338 -340 -347 -351 -319 -404 15 -29 69 -60 103 -60 21
0 38 11 65 43 20 23 159 166 308 317 150 151 277 286 284 299 29 56 -20 131
-85 131 -30 0 -64 -31 -356 -326z"/>
<path d="M1909 1345 c-238 -240 -335 -343 -337 -361 -12 -91 106 -154 160 -86
12 15 147 153 300 307 153 154 289 295 303 314 35 48 33 94 -4 132 -60 59 -53
64 -422 -306z"/>
</g>
</svg>
